<svg width="963" height="310" viewBox="0 0 963 310" fill="none" xmlns="http://www.w3.org/2000/svg">
<g clip-path="url(#clip0_428_131)">
<path fill-rule="evenodd" clip-rule="evenodd" d="M962.5 127.8C961 137.1 959.8 146.4 958.1 155.6C953.7 179 948.6 202.3 944.9 225.8C943.5 234.9 944.8 244.5 945.5 253.9C945.9 259.6 946.4 259.5 940.8 259.5C922.7 259.5 904.5 259.4 886.4 259.6C883 259.6 881.5 258.8 881.1 255.2C880 245.7 879.8 245.7 871.8 250.8C853.7 262.3 834.5 267.9 813 263.2C791.1 258.4 776.8 240.6 778.8 220C780.8 199.8 791.1 184.5 807.2 172.7C818.4 164.5 831 159.6 844.1 155.2C859.3 150.2 874.4 144.7 889.2 138.8C903.7 133 906.6 119.4 903.8 107C903 103.2 900.3 100.5 896.5 99.4C887.2 96.8 875.4 98.8 873 108.7C872.4 111.2 872.4 114 872.9 116.5C874.4 124.5 873.4 127.2 865.7 130.3C856.4 134 847.1 137.8 836.7 136.1C828.4 134.7 822.4 130.2 818.4 123C811.4 110.3 810 96.9 813 82.8C813.4 81.1 813.7 79.3 816 80.7C827.7 88 840.6 85.6 853 84.8C866.3 84 879.5 81.1 892.8 80C908.9 78.7 924.9 80.2 940.2 85.6C953.9 90.4 960.1 100.8 961.6 114.7C961.8 116.4 962.2 118.2 962.5 119.9C962.5 122.5 962.5 125.1 962.5 127.8ZM896.1 154.6C890.5 157 885.4 158.5 881.1 161.2C866.6 170.3 855.3 182.6 847 197.5C842.7 205.2 841.2 213.5 842.2 222.2C843.5 233.8 853.8 241.5 863.6 237.5C874.4 233.1 883.7 226.7 884.7 213.4C884.9 211.1 885.6 208.8 886 206.5C889.3 189.7 892.6 172.9 896.1 154.6Z" fill="#32AA4C"/>
<path fill-rule="evenodd" clip-rule="evenodd" d="M685.6 308.9C685.3 308.9 685.1 308.8 684.8 308.8C681.5 308.3 678.2 307.4 675 306.5C675 306.5 676.3 305.1 676.5 305C689.3 295.3 695.6 281.9 698.7 266.6C708 220.5 717.1 174.4 726.3 128.2C727.2 123.9 727.9 119.5 728.9 115.2C731.4 105.3 730.8 95.8 726.2 86.4C724 81.9 724.3 81.7 729.3 81.7C749.3 81.7 769.4 81.8 789.4 81.6C792.5 81.6 793.3 82.1 792.7 85.5C785.9 119.7 779.4 153.9 772.7 188.1C767.3 215.9 761.7 243.8 756.5 271.7C754.5 282.5 748.7 290.6 739.6 296.5C727.3 304.4 712.2 308.6 697.6 309.3C693.7 309.5 689.6 309.4 685.6 308.9Z" fill="#32AA4C"/>
<path fill-rule="evenodd" clip-rule="evenodd" d="M194.6 179.8C191.2 187.7 187.3 198.5 181.9 208.5C171.5 227.7 157.5 243.5 137.2 252.8C127.7 257.1 117.7 259.6 107.3 259.6C72.5 259.7 37.7 259.7 2.9 259.7C2 259.7 1.2 259.6 0 259.5C0.4 258.4 0.6 257.3 1.1 256.6C10.2 243 13.8 227.5 16.9 211.6C27.4 157.3 38.4 103.2 49.3 49C50.9 40.9 49.6 33.2 47.5 25.5C46.7 22.7 47.1 21.9 50.1 21.9C70.4 22 90.8 22 111.1 21.9C113.8 21.9 114.2 22.7 113.7 25.3C108.9 49.3 104.3 73.4 99.5 97.9C102.6 96 105.7 94 108.7 92.2C119.9 85.6 131.7 80 145 79.4C173 78.1 191.9 92.8 198.2 120.2C200.9 132 200.6 143.9 199.2 156.9C201.3 151.5 202.7 147 204.6 142.7C221.8 105.6 250.7 84.5 291.2 79.3C309.8 76.9 328 78 345.1 86.5C362.6 95.2 375.5 108 378.2 128.3C380 141.5 378.7 154.8 375.8 167.8C375.2 170.6 373.2 170.4 371.2 170.4C337.6 170.5 304 170.6 270.4 170.5C266.4 170.5 264.9 171.5 264.2 175.6C261.6 190.5 258.1 205.3 259.2 220.7C260.4 237.2 270.1 246.9 286.7 247.5C309.8 248.4 327 236.4 332.3 215.9C334.1 209 333.9 202.1 330.9 195.6C329.8 193.1 330.4 192 332.8 191.7C337.3 191.1 341.9 189.7 346.2 190.4C358.3 192.1 364.2 202.4 361.6 215.6C358.8 229.7 350.5 239.8 338.8 247.3C319.6 259.6 298.5 265 275.8 263.9C261.3 263.2 247 261.4 233.7 255.3C208.9 244.1 196 224.7 194.8 197.6C194.4 190.6 194.6 183.8 194.6 179.8ZM137.2 133.2C136 127.6 135.3 121.9 133.5 116.6C131.6 110.9 127 108.2 120.9 108.1C113.3 108 107.7 111.7 102.9 117C95.9 124.7 91.8 134 89.5 144C87 154.9 85 165.9 82.9 176.8C78.8 197.9 74.7 218.9 70.6 240C70.3 241.6 69.7 242.9 72.2 242.8C77 242.6 82.2 243.4 86.7 242.1C103.7 237.2 115.8 226.5 121.4 209.3C124.1 200.9 126 192.3 128 183.7C131.7 167.1 135.8 150.6 137.2 133.2ZM291.2 154.3C297.4 154.3 303.6 154.2 309.7 154.4C312.5 154.5 313.9 154 314.3 150.8C315 145.4 316.7 140.2 317.4 134.8C318.6 125.1 320.2 115.3 320.1 105.6C320.1 97.3 313.8 92.4 305.3 92.5C294.6 92.6 287.1 98.4 282.5 107.4C275.5 121.1 271.8 135.9 268.9 150.9C268.4 153.7 269.4 154.4 272.1 154.4C278.6 154.2 284.9 154.3 291.2 154.3Z" fill="#D21E20"/>
<path fill-rule="evenodd" clip-rule="evenodd" d="M620.1 15.7C642.5 16 665 20.6 683.9 36.1C703 51.8 713.7 72.2 715.7 96.9C719.5 142.8 697.4 214.4 634.9 248C612.8 259.8 589.2 264.6 564.3 264.3C545.7 264.1 527.6 261.3 510.4 254.1C504.5 251.6 498.7 248.4 493.7 244.4C480.3 233.6 479.7 215.7 491.7 202.7C509.5 183.6 545 184.1 562.4 203.7C565 206.7 565.6 208.4 561.8 211C554.3 216.2 549.5 223.4 550.7 233.1C551.8 241.6 559.2 248.1 568.5 249.7C578.1 251.4 587.1 249.4 593.8 242.5C600.4 235.7 606.5 228.2 611.4 220.1C622.5 201.5 629.2 181.1 632.8 159.8C633 158.5 632.5 157.1 632.3 155.7C631.2 156.2 629.9 156.6 629 157.3C607.9 172.5 584.6 180.7 558.4 179.8C537.1 179.1 518.5 172.3 505.4 154.5C494.3 139.5 492.5 122.6 495.7 104.9C503.4 62 531.4 37.5 570.5 23.5C586.2 17.9 602.4 15.9 620.1 15.7ZM568.4 115.9C569.1 121.1 569.5 127.3 570.7 133.3C574.1 149.9 584.3 156.9 601 154.3C612.5 152.5 621.6 146.4 628.8 137.6C648.8 113.3 654.4 85.1 648.9 54.8C645.7 37 634.4 29.2 617.5 31.4C606.8 32.8 598.2 38.3 591.6 46.7C575.8 66.7 570.3 90.2 568.4 115.9Z" fill="#32AA4C"/>
<path fill-rule="evenodd" clip-rule="evenodd" d="M462.5 223.1C456.6 253.3 427.4 270.4 399.5 260.5C383.6 254.8 374.3 238.9 377.4 222.2C384.8 182.6 392.2 143 399.7 103.4C400.4 99.8 399.4 98.4 395.8 98.9C394.2 99.1 392.6 99.3 391 99.3C389.7 99.3 388.4 98.8 387.1 98.5C387.8 97.1 388.1 95.3 389.2 94.4C392.5 91.7 395.9 89.1 399.5 86.8C411 79.5 419.6 69.3 428.1 58.8C440.6 43.6 453.9 29.3 472.3 20.9C479.7 17.6 487.1 15 495.2 15.6C496.4 15.7 497.6 16.2 498.8 16.5C498.1 18.2 497.9 20.8 496.7 21.5C474.3 34.3 469 56.7 464 79.3C463.4 81.8 464.9 81.5 466.3 81.6C472.9 81.6 479.6 81.7 486.2 81.6C489 81.5 489.4 82.5 488.9 85C488 89 487.1 93 486.5 97.1C486.1 99.7 484.9 100.4 482.4 100.4C476.1 100.2 469.7 100.5 463.4 100.3C460.5 100.2 459.6 101.4 459.1 103.9C452.9 136.2 446.7 168.6 440.4 200.9C439.6 204.9 438.4 208.9 437.4 212.9C434.5 223.7 442 227.7 450.8 226.2C454.6 225.5 458.3 224.3 462.5 223.1Z" fill="#D21E20"/>
<path d="M791 14C788.4 10.7 785.1 7.9 781.5 5.7C777 2.9 771.7 1.1 766.2 0.500003C764.8 0.300003 763.4 0.300003 762 0.300003C761.3 0.300003 760.6 0.300003 759.9 0.400003C753.8 0.700003 748.2 2.5 743.3 5.3C738.2 8.2 733.9 12.3 730.8 17.2C729.7 18.9 728.8 20.7 728 22.5C726.3 26.5 725.4 30.9 725.3 35.4C725.3 35.6 725.3 35.8 725.3 35.9C725.3 44.3 728.2 51.9 733.2 58C735.8 61.2 738.9 63.9 742.4 66.1C745.9 68.3 749.8 69.9 754 70.8C756.6 71.4 759.3 71.7 762.1 71.7C764.6 71.7 767 71.5 769.3 71C770.1 70.8 770.9 70.7 771.7 70.4C773.1 70 774.5 69.6 775.9 69.1C780.6 67.2 784.9 64.5 788.4 61C792.1 57.4 794.9 53 796.7 48.2C798.1 44.4 798.9 40.4 798.9 36.1C798.9 36.1 798.9 36 798.9 35.9C798.7 27.7 795.8 20.1 791 14Z" fill="#32AA4C"/>
</g>
<defs>
<clipPath id="clip0_428_131">
<rect width="962.5" height="309.4" fill="white"/>
</clipPath>
</defs>
</svg>
